HIERARCHY
ROOT SpineBase
{
  OFFSET 0.000000 0.000000 0.000000
  CHANNELS 6 Xposition Yposition Zposition Zrotation Xrotation Yrotation
  JOINT SpineMid
  {
    OFFSET 0.000000 26.780308 0.000000
    CHANNELS 3 Zrotation Xrotation Yrotation
    JOINT SpineShoulder
    {
      OFFSET -0.050357 19.886429 -0.581971
      CHANNELS 3 Zrotation Xrotation Yrotation
      JOINT Neck
      {
        OFFSET -0.027122 6.581774 -0.439750
        CHANNELS 3 Zrotation Xrotation Yrotation
        JOINT Head
        {
          OFFSET 1.056860 12.351996 -0.316997
          CHANNELS 3 Zrotation Xrotation Yrotation
          End Site
          {
            OFFSET 0 0 0
          }
        }
      }
      JOINT ShoulderLeft
      {
        OFFSET -11.471090 -3.620923 -8.485752
        CHANNELS 3 Zrotation Xrotation Yrotation
        JOINT ElbowLeft
        {
          OFFSET -1.599383 -19.470099 -4.154378
          CHANNELS 3 Zrotation Xrotation Yrotation
          JOINT WristLeft
          {
            OFFSET 9.677465 -18.156502 -3.556115
            CHANNELS 3 Zrotation Xrotation Yrotation
            JOINT HandLeft
            {
              OFFSET 3.094097 -5.593050 3.528047
              CHANNELS 3 Zrotation Xrotation Yrotation
              JOINT HandTipLeft
              {
                OFFSET 5.839259 -4.639866 -1.489996
                CHANNELS 3 Zrotation Xrotation Yrotation
                End Site
                {
                  OFFSET 0 0 0
                }
              }
              JOINT ThumbLeft
              {
                OFFSET -5.229798 -3.486858 1.895387
                CHANNELS 3 Zrotation Xrotation Yrotation
                End Site
                {
                  OFFSET 0 0 0
                }
              }
            }
          }
        }
      }
      JOINT ShoulderRight
      {
        OFFSET 11.837017 -3.704835 4.393913
        CHANNELS 3 Zrotation Xrotation Yrotation
        JOINT ElbowRight
        {
          OFFSET 1.618686 -17.237126 1.309920
          CHANNELS 3 Zrotation Xrotation Yrotation
          JOINT WristRight
          {
            OFFSET 0.246590 -19.169209 -9.555181
            CHANNELS 3 Zrotation Xrotation Yrotation
            JOINT HandRight
            {
              OFFSET -1.647363 -5.389148 -2.739349
              CHANNELS 3 Zrotation Xrotation Yrotation
              JOINT HandTipRight
              {
                OFFSET -1.900414 -5.176880 -4.801584
                CHANNELS 3 Zrotation Xrotation Yrotation
                End Site
                {
                  OFFSET 0 0 0
                }
              }
              JOINT ThumbRight
              {
                OFFSET 0.878775 0.784759 -3.922908
                CHANNELS 3 Zrotation Xrotation Yrotation
                End Site
                {
                  OFFSET 0 0 0
                }
              }
            }
          }
        }
      }
    }
  }
  JOINT HipLeft
  {
    OFFSET -5.107035 1.046189 -6.031784
    CHANNELS 3 Zrotation Xrotation Yrotation
    JOINT KneeLeft
    {
      OFFSET -5.575927 -30.544834 5.031803
      CHANNELS 3 Zrotation Xrotation Yrotation
      JOINT AnkleLeft
      {
        OFFSET -2.430915 -30.018919 9.924121
        CHANNELS 3 Zrotation Xrotation Yrotation
        JOINT FootLeft
        {
          OFFSET 4.323094 -5.561526 -1.099201
          CHANNELS 3 Zrotation Xrotation Yrotation
          End Site
          {
            OFFSET 0 0 0
          }
        }
      }
    }
  }
  JOINT HipRight
  {
    OFFSET 4.687101 0.056541 -0.228325
    CHANNELS 3 Zrotation Xrotation Yrotation
    JOINT KneeRight
    {
      OFFSET -1.740245 -28.615605 5.736189
      CHANNELS 3 Zrotation Xrotation Yrotation
      JOINT AnkleRight
      {
        OFFSET -5.245203 -32.911278 9.244286
        CHANNELS 3 Zrotation Xrotation Yrotation
        JOINT FootRight
        {
          OFFSET 3.359628 -2.593959 -9.046521
          CHANNELS 3 Zrotation Xrotation Yrotation
          End Site
          {
            OFFSET 0 0 0
          }
        }
      }
    }
  }
}
MOTION
Frames: 6
Frame Time: 0.033333
24.042113 67.559874 367.843191 -0.000000 0.000000 -30.648619 -0.000000 0.000000 30.648619 -0.000000 0.000000 0.000000 -0.000000 0.000000 0.000000 0.000000 0.000000 0.000000 -0.000000 0.000000 0.000000 -0.000000 0.000000 0.000000 -0.000000 0.000000 0.000000 -0.000000 0.000000 0.000000 0.000000 0.000000 0.000000 0.000000 0.000000 0.000000 -0.000000 0.000000 0.000000 -0.000000 0.000000 0.000000 -0.000000 0.000000 0.000000 -0.000000 0.000000 0.000000 0.000000 0.000000 0.000000 0.000000 0.000000 0.000000 -0.000000 0.000000 30.648619 -0.000000 0.000000 0.000000 -0.000000 0.000000 0.000000 0.000000 0.000000 0.000000 -0.000000 0.000000 30.648619 -0.000000 0.000000 0.000000 -0.000000 0.000000 0.000000 0.000000 0.000000 0.000000
23.836964 67.518259 367.750369 -0.340947 0.151037 -30.594816 0.370355 0.043520 30.595125 -0.000000 0.000000 0.000000 -0.000000 0.000000 0.000000 0.000000 0.000000 0.000000 -0.000000 0.000000 0.000000 0.706475 -0.621640 -0.464842 1.322182 8.204752 6.002944 -2.145006 -10.418399 -9.852952 0.000000 0.000000 0.000000 0.000000 0.000000 0.000000 -0.000000 0.000000 0.000000 -1.208387 2.239561 0.648557 1.610515 -1.099111 -1.151537 -2.844404 -1.347778 2.814999 0.000000 0.000000 0.000000 0.000000 0.000000 0.000000 0.370355 0.043520 30.595125 -0.000000 0.000000 0.000000 1.560920 4.538331 3.101308 0.000000 0.000000 0.000000 0.370355 0.043520 30.595125 -0.000000 0.000000 0.000000 -1.209718 -1.842594 1.948711 0.000000 0.000000 0.000000
23.671149 67.483402 367.677019 -0.611054 0.265908 -30.557110 0.661377 0.081687 30.558057 -0.000000 0.000000 0.000000 -0.000000 0.000000 0.000000 0.000000 0.000000 0.000000 -0.000000 0.000000 0.000000 1.326590 -1.168289 -0.865404 1.571653 14.169483 10.180985 -4.540255 -18.844727 -18.608382 0.000000 0.000000 0.000000 0.000000 0.000000 0.000000 -0.000000 0.000000 0.000000 -2.244427 4.008027 1.227881 2.878341 -1.850661 -2.047085 -5.425006 -2.953979 5.424144 0.000000 0.000000 0.000000 0.000000 0.000000 0.000000 0.661377 0.081687 30.558057 0.699576 -0.549150 0.278798 1.943128 9.197666 5.537619 0.000000 0.000000 0.000000 1.737728 0.059306 30.774595 -0.913358 0.569943 -0.213320 -2.165361 -3.402645 3.531294 0.000000 0.000000 0.000000
23.544666 67.455302 367.623140 -0.810744 0.344811 -30.536770 0.873486 0.114963 30.538333 -0.000000 0.000000 0.000000 -0.000000 0.000000 0.000000 0.000000 0.000000 0.000000 -0.000000 0.000000 0.000000 1.861242 -1.637356 -1.203652 1.322520 18.364352 13.101538 -6.982842 -25.706536 -26.520838 0.000000 0.000000 0.000000 0.000000 0.000000 0.000000 -0.000000 0.000000 0.000000 -3.096354 5.310403 1.716575 3.824296 -2.211909 -2.742604 -7.556058 -4.840656 7.697380 0.000000 0.000000 0.000000 0.000000 0.000000 0.000000 0.873486 0.114963 30.538333 1.037492 -0.819381 0.416092 2.202345 13.011027 7.749399 0.000000 0.000000 0.000000 2.312474 0.087976 30.827180 -1.221908 0.760551 -0.283284 -2.828042 -4.546870 4.651057 0.000000 0.000000 0.000000
23.457516 67.433960 367.588733 -0.940345 0.387903 -30.534649 1.007008 0.143668 30.536570 -0.000000 0.000000 0.000000 -0.000000 0.000000 0.000000 0.000000 0.000000 0.000000 -0.000000 0.000000 0.000000 2.311441 -2.026923 -1.481471 0.874650 21.214597 15.103333 -9.343142 -31.211033 -33.566627 0.000000 0.000000 0.000000 0.000000 0.000000 0.000000 0.809770 -0.382389 0.028306 -4.565655 6.538779 2.100678 4.463630 -2.155022 -3.278002 -9.033963 -6.975913 9.493822 0.000000 0.000000 0.000000 0.000000 0.000000 0.000000 1.007008 0.143668 30.536570 1.370165 -1.088685 0.552968 2.040120 16.168089 9.602074 0.000000 0.000000 0.000000 2.691689 0.116512 30.874085 -1.432104 0.887758 -0.330245 -3.174470 -5.171861 5.237457 0.000000 0.000000 0.000000
23.409699 67.419376 367.573798 -1.000080 0.395283 -30.551158 1.062159 0.167969 30.553051 -0.000000 0.000000 0.000000 -0.000000 0.000000 0.000000 0.000000 0.000000 0.000000 -0.000000 0.000000 0.000000 2.678237 -2.335660 -1.700606 0.382253 23.019039 16.384401 -11.392700 -35.394839 -39.450435 0.000000 0.000000 0.000000 0.000000 0.000000 0.000000 1.094458 -0.433679 0.046536 -5.310614 6.987628 2.355997 4.806088 -1.659977 -3.678914 -9.685837 -9.282746 10.701934 0.000000 0.000000 0.000000 0.000000 0.000000 0.000000 1.062159 0.167969 30.553051 1.699431 -1.358435 0.690140 1.502899 18.633976 11.110007 0.000000 0.000000 0.000000 2.875626 0.145035 30.915802 -1.544128 0.951342 -0.354884 -3.193954 -5.219798 5.252814 0.000000 0.000000 0.000000
